<svg width="103" height="24" xmlns="http://www.w3.org/2000/svg" xmlns:xlink="http://www.w3.org/1999/xlink"><defs><path id="a" d="M0 23.294h102.674V0H0z"/></defs><g fill="none" fill-rule="evenodd"><path d="M13.321 16.285l-1.484-.92-2.717-.656-.352.55s-.085.954-.066 1.026c.019.072.969.699.969.699s3.315-.328 3.354-.328c.038 0 .296-.37.296-.37M9.9 0h3.421v.514L9.472 1.688l-1.52-.274.57-1.173.712-.24z" fill="#346FE6"/><path d="M21.346 8.143c0 4.497-3.592 8.143-8.025 8.143-4.432 0-8.024-3.646-8.024-8.143C5.297 3.646 8.889 0 13.32 0c4.433 0 8.025 3.646 8.025 8.143" fill="#346FE6"/><mask id="b" fill="#fff"><use xlink:href="#a"/></mask><path fill="#2FAC8D" mask="url(#b)" d="M0 23.272h9.234V0H0z"/><path fill="#FFDC95" mask="url(#b)" d="M19.984 23.272H9.234v-6.986h4.087z"/><path fill="#2FAC8D" mask="url(#b)" d="M2.55 16.85h6.684V0H2.55z"/><path d="M65.647 3.019h2.776v6.16c.74-.292 1.39-.645 2.083-.804 2.432-.555 4.54.957 4.674 3.477.126 2.387.027 4.785.027 7.232h-2.773v-1.867c0-1.379.015-2.76-.006-4.137-.022-1.355-.8-2.21-1.964-2.211-1.19-.002-1.995.895-2 2.25-.007 1.718-.003 3.435-.003 5.153v.822h-2.814V3.02zM91.66 20.625c.658 0 1.214.075 1.744-.015 1.441-.24 2.165-1.611 1.623-2.957-1.145-2.84-2.286-5.683-3.426-8.525-.07-.173-.115-.357-.203-.628.947 0 1.825-.028 2.699.023.17.01.392.303.47.512.703 1.873 1.379 3.758 2.066 5.638.08.22.186.428.328.753.855-2.175 1.687-4.23 2.46-6.306.186-.503.426-.662.93-.635.734.04 1.472.01 2.323.01-.65 1.507-1.256 2.917-1.866 4.326-1.024 2.369-2.042 4.74-3.08 7.1a10.003 10.003 0 01-.818 1.526c-1.299 1.954-3.02 2.02-4.869 1.678-.147-.027-.354-.267-.363-.419-.04-.67-.017-1.345-.017-2.08M78.386 10.953H76.94V8.531h1.55V5.843h2.883v2.635h2.932v2.464h-2.92v2.348c0 .629-.011 1.26.003 1.888.023 1.023.46 1.515 1.47 1.596.57.045 1.146.007 1.827.007 0 .699.023 1.414-.02 2.125-.008.132-.28.349-.435.353-.974.032-1.975.16-2.919-.017-1.777-.33-2.74-1.668-2.784-3.62-.033-1.5-.023-3-.034-4.5 0-.02-.024-.04-.108-.169M86.84 19.108h2.75V3.044h-2.75zM46.526 19.113h2.756V8.535h-2.756zM47.855 6.388c-1.04-.012-1.826-.815-1.796-1.836.028-.987.811-1.724 1.831-1.722 1.043.002 1.859.794 1.85 1.794-.008.988-.85 1.776-1.885 1.764M57.31 16.38c-1.592.017-2.754-1.195-2.752-2.87.003-1.634 1.08-2.751 2.673-2.773 1.614-.023 2.66 1.04 2.68 2.721.019 1.703-1.05 2.906-2.6 2.922m5.411-7.161c0-.231-.02-.462-.03-.68h-2.54l-.066 1.135c-2.396-2.268-5.492-1.45-6.905-.055-1.792 1.769-2.052 5.1-.537 7.22 1.58 2.214 4.178 2.56 7.145.95.178 1.24-.157 2.093-1.154 2.515-.551.233-1.237.418-1.796.302-1.092-.227-2.14-.681-3.337-1.085l-1.324 1.78c1.476 1.37 3.168 1.976 5.076 1.993 3.488.031 5.453-1.925 5.467-5.434.01-2.88.003-5.76.001-8.641M38.678 11.544c-.874.075-1.759.016-2.699.016V7.546c.973 0 1.904-.064 2.823.017.988.088 1.632.937 1.633 1.97.002 1.108-.656 1.918-1.757 2.011m2.253 2.069c.159-.115.25-.185.347-.249 1.663-1.1 2.306-2.69 2.007-4.625-.302-1.952-1.509-3.28-3.402-3.546-2.206-.31-4.46-.264-6.749-.375v14.267h2.821v-4.943c.438 0 .799.045 1.144-.009.685-.109 1.095.188 1.472.745.88 1.295 1.816 2.552 2.738 3.816.122.166.296.408.453.414.982.038 1.966.02 3.072.02l-3.903-5.515" fill="#000" mask="url(#b)"/></g></svg>